<mxfile host="app.diagrams.net" modified="2023-10-13T18:25:49.830Z" agent="Mozilla/5.0 (Macintosh; Intel Mac OS X 10_15_7) AppleWebKit/537.36 (KHTML, like Gecko) Chrome/117.0.0.0 Safari/537.36" etag="wrgSH7OcUJ7Fp7zOlQ-6" version="22.0.4" type="github">
  <diagram name="Page-1" id="PfQ62zCNv0g9gpDc_-1s">
    <mxGraphModel dx="4018" dy="1769" grid="1" gridSize="10" guides="1" tooltips="1" connect="1" arrows="1" fold="1" page="1" pageScale="1" pageWidth="827" pageHeight="1169" math="0" shadow="0">
      <root>
        <mxCell id="0" />
        <mxCell id="1" parent="0" />
        <mxCell id="bOpyW85bNfaV8jfnXNod-102" style="edgeStyle=orthogonalEdgeStyle;rounded=0;orthogonalLoop=1;jettySize=auto;html=1;exitX=0.5;exitY=1;exitDx=0;exitDy=0;" edge="1" parent="1" source="bOpyW85bNfaV8jfnXNod-7" target="bOpyW85bNfaV8jfnXNod-99">
          <mxGeometry relative="1" as="geometry" />
        </mxCell>
        <mxCell id="bOpyW85bNfaV8jfnXNod-7" value="&lt;meta charset=&quot;utf-8&quot;&gt;&lt;span style=&quot;color: rgb(0, 0, 0); font-family: Helvetica; font-size: 12px; font-style: normal; font-variant-ligatures: normal; font-variant-caps: normal; font-weight: 400; letter-spacing: normal; orphans: 2; text-align: center; text-indent: 0px; text-transform: none; widows: 2; word-spacing: 0px; -webkit-text-stroke-width: 0px; background-color: rgb(251, 251, 251); text-decoration-thickness: initial; text-decoration-style: initial; text-decoration-color: initial; float: none; display: inline !important;&quot;&gt;BACKEND&lt;/span&gt;" style="rounded=1;whiteSpace=wrap;html=1;" vertex="1" parent="1">
          <mxGeometry x="829" y="80" width="330" height="90" as="geometry" />
        </mxCell>
        <mxCell id="bOpyW85bNfaV8jfnXNod-57" style="edgeStyle=orthogonalEdgeStyle;rounded=0;orthogonalLoop=1;jettySize=auto;html=1;" edge="1" parent="1" source="bOpyW85bNfaV8jfnXNod-11" target="bOpyW85bNfaV8jfnXNod-48">
          <mxGeometry relative="1" as="geometry" />
        </mxCell>
        <mxCell id="bOpyW85bNfaV8jfnXNod-67" style="edgeStyle=orthogonalEdgeStyle;rounded=0;orthogonalLoop=1;jettySize=auto;html=1;entryX=0;entryY=0.5;entryDx=0;entryDy=0;" edge="1" parent="1" source="bOpyW85bNfaV8jfnXNod-11" target="bOpyW85bNfaV8jfnXNod-62">
          <mxGeometry relative="1" as="geometry" />
        </mxCell>
        <mxCell id="bOpyW85bNfaV8jfnXNod-89" style="edgeStyle=orthogonalEdgeStyle;rounded=0;orthogonalLoop=1;jettySize=auto;html=1;entryX=0;entryY=0.5;entryDx=0;entryDy=0;" edge="1" parent="1" source="bOpyW85bNfaV8jfnXNod-11" target="bOpyW85bNfaV8jfnXNod-63">
          <mxGeometry relative="1" as="geometry" />
        </mxCell>
        <mxCell id="bOpyW85bNfaV8jfnXNod-11" value="Base de datos" style="shape=cylinder3;whiteSpace=wrap;html=1;boundedLbl=1;backgroundOutline=1;size=15;" vertex="1" parent="1">
          <mxGeometry x="-696" y="430" width="140" height="540" as="geometry" />
        </mxCell>
        <mxCell id="bOpyW85bNfaV8jfnXNod-34" value="User model" style="swimlane;fontStyle=0;childLayout=stackLayout;horizontal=1;startSize=30;horizontalStack=0;resizeParent=1;resizeParentMax=0;resizeLast=0;collapsible=1;marginBottom=0;whiteSpace=wrap;html=1;" vertex="1" parent="1">
          <mxGeometry x="-333" y="290" width="203" height="270" as="geometry">
            <mxRectangle x="-333" y="300" width="100" height="30" as="alternateBounds" />
          </mxGeometry>
        </mxCell>
        <mxCell id="bOpyW85bNfaV8jfnXNod-35" value="Id (int) (unique y autoincremente" style="text;strokeColor=none;fillColor=none;align=left;verticalAlign=middle;spacingLeft=4;spacingRight=4;overflow=hidden;points=[[0,0.5],[1,0.5]];portConstraint=eastwest;rotatable=0;whiteSpace=wrap;html=1;" vertex="1" parent="bOpyW85bNfaV8jfnXNod-34">
          <mxGeometry y="30" width="203" height="30" as="geometry" />
        </mxCell>
        <mxCell id="bOpyW85bNfaV8jfnXNod-36" value="Username (string) (unique)" style="text;strokeColor=none;fillColor=none;align=left;verticalAlign=middle;spacingLeft=4;spacingRight=4;overflow=hidden;points=[[0,0.5],[1,0.5]];portConstraint=eastwest;rotatable=0;whiteSpace=wrap;html=1;" vertex="1" parent="bOpyW85bNfaV8jfnXNod-34">
          <mxGeometry y="60" width="203" height="30" as="geometry" />
        </mxCell>
        <mxCell id="bOpyW85bNfaV8jfnXNod-37" value="Email (string) (unique)" style="text;strokeColor=none;fillColor=none;align=left;verticalAlign=middle;spacingLeft=4;spacingRight=4;overflow=hidden;points=[[0,0.5],[1,0.5]];portConstraint=eastwest;rotatable=0;whiteSpace=wrap;html=1;" vertex="1" parent="bOpyW85bNfaV8jfnXNod-34">
          <mxGeometry y="90" width="203" height="30" as="geometry" />
        </mxCell>
        <mxCell id="bOpyW85bNfaV8jfnXNod-48" value="Avatar URL (string)" style="text;strokeColor=none;fillColor=none;align=left;verticalAlign=middle;spacingLeft=4;spacingRight=4;overflow=hidden;points=[[0,0.5],[1,0.5]];portConstraint=eastwest;rotatable=0;whiteSpace=wrap;html=1;" vertex="1" parent="bOpyW85bNfaV8jfnXNod-34">
          <mxGeometry y="120" width="203" height="30" as="geometry" />
        </mxCell>
        <mxCell id="bOpyW85bNfaV8jfnXNod-49" value="ELO (int)" style="text;strokeColor=none;fillColor=none;align=left;verticalAlign=middle;spacingLeft=4;spacingRight=4;overflow=hidden;points=[[0,0.5],[1,0.5]];portConstraint=eastwest;rotatable=0;whiteSpace=wrap;html=1;" vertex="1" parent="bOpyW85bNfaV8jfnXNod-34">
          <mxGeometry y="150" width="203" height="30" as="geometry" />
        </mxCell>
        <mxCell id="bOpyW85bNfaV8jfnXNod-50" value="Wins/Losses (int)" style="text;strokeColor=none;fillColor=none;align=left;verticalAlign=middle;spacingLeft=4;spacingRight=4;overflow=hidden;points=[[0,0.5],[1,0.5]];portConstraint=eastwest;rotatable=0;whiteSpace=wrap;html=1;" vertex="1" parent="bOpyW85bNfaV8jfnXNod-34">
          <mxGeometry y="180" width="203" height="30" as="geometry" />
        </mxCell>
        <mxCell id="bOpyW85bNfaV8jfnXNod-52" value="Blocked Users (Many to many SR)" style="text;strokeColor=none;fillColor=none;align=left;verticalAlign=middle;spacingLeft=4;spacingRight=4;overflow=hidden;points=[[0,0.5],[1,0.5]];portConstraint=eastwest;rotatable=0;whiteSpace=wrap;html=1;" vertex="1" parent="bOpyW85bNfaV8jfnXNod-34">
          <mxGeometry y="210" width="203" height="30" as="geometry" />
        </mxCell>
        <mxCell id="bOpyW85bNfaV8jfnXNod-53" value="Friends (Many to many SR)" style="text;strokeColor=none;fillColor=none;align=left;verticalAlign=middle;spacingLeft=4;spacingRight=4;overflow=hidden;points=[[0,0.5],[1,0.5]];portConstraint=eastwest;rotatable=0;whiteSpace=wrap;html=1;" vertex="1" parent="bOpyW85bNfaV8jfnXNod-34">
          <mxGeometry y="240" width="203" height="30" as="geometry" />
        </mxCell>
        <mxCell id="bOpyW85bNfaV8jfnXNod-58" value="Chat Room Model" style="swimlane;fontStyle=0;childLayout=stackLayout;horizontal=1;startSize=30;horizontalStack=0;resizeParent=1;resizeParentMax=0;resizeLast=0;collapsible=1;marginBottom=0;whiteSpace=wrap;html=1;" vertex="1" parent="1">
          <mxGeometry x="-333" y="830" width="203" height="180" as="geometry">
            <mxRectangle x="-333" y="640" width="100" height="30" as="alternateBounds" />
          </mxGeometry>
        </mxCell>
        <mxCell id="bOpyW85bNfaV8jfnXNod-70" value="Blocked users (User array)" style="text;strokeColor=none;fillColor=none;align=left;verticalAlign=middle;spacingLeft=4;spacingRight=4;overflow=hidden;points=[[0,0.5],[1,0.5]];portConstraint=eastwest;rotatable=0;whiteSpace=wrap;html=1;" vertex="1" parent="bOpyW85bNfaV8jfnXNod-58">
          <mxGeometry y="30" width="203" height="30" as="geometry" />
        </mxCell>
        <mxCell id="bOpyW85bNfaV8jfnXNod-59" value="Id (int) (unique y autoincremente" style="text;strokeColor=none;fillColor=none;align=left;verticalAlign=middle;spacingLeft=4;spacingRight=4;overflow=hidden;points=[[0,0.5],[1,0.5]];portConstraint=eastwest;rotatable=0;whiteSpace=wrap;html=1;" vertex="1" parent="bOpyW85bNfaV8jfnXNod-58">
          <mxGeometry y="60" width="203" height="30" as="geometry" />
        </mxCell>
        <mxCell id="bOpyW85bNfaV8jfnXNod-72" value="Messages (Chat message array)" style="text;strokeColor=none;fillColor=none;align=left;verticalAlign=middle;spacingLeft=4;spacingRight=4;overflow=hidden;points=[[0,0.5],[1,0.5]];portConstraint=eastwest;rotatable=0;whiteSpace=wrap;html=1;" vertex="1" parent="bOpyW85bNfaV8jfnXNod-58">
          <mxGeometry y="90" width="203" height="30" as="geometry" />
        </mxCell>
        <mxCell id="bOpyW85bNfaV8jfnXNod-63" value="Room Name (string) (unique)" style="text;strokeColor=none;fillColor=none;align=left;verticalAlign=middle;spacingLeft=4;spacingRight=4;overflow=hidden;points=[[0,0.5],[1,0.5]];portConstraint=eastwest;rotatable=0;whiteSpace=wrap;html=1;" vertex="1" parent="bOpyW85bNfaV8jfnXNod-58">
          <mxGeometry y="120" width="203" height="30" as="geometry" />
        </mxCell>
        <mxCell id="bOpyW85bNfaV8jfnXNod-69" value="Room users (User array)" style="text;strokeColor=none;fillColor=none;align=left;verticalAlign=middle;spacingLeft=4;spacingRight=4;overflow=hidden;points=[[0,0.5],[1,0.5]];portConstraint=eastwest;rotatable=0;whiteSpace=wrap;html=1;" vertex="1" parent="bOpyW85bNfaV8jfnXNod-58">
          <mxGeometry y="150" width="203" height="30" as="geometry" />
        </mxCell>
        <mxCell id="bOpyW85bNfaV8jfnXNod-82" value="Chat Message Model" style="swimlane;fontStyle=0;childLayout=stackLayout;horizontal=1;startSize=30;horizontalStack=0;resizeParent=1;resizeParentMax=0;resizeLast=0;collapsible=1;marginBottom=0;whiteSpace=wrap;html=1;" vertex="1" parent="1">
          <mxGeometry x="-333" y="620" width="203" height="150" as="geometry">
            <mxRectangle x="-333" y="640" width="100" height="30" as="alternateBounds" />
          </mxGeometry>
        </mxCell>
        <mxCell id="bOpyW85bNfaV8jfnXNod-83" value="Content (string)" style="text;strokeColor=none;fillColor=none;align=left;verticalAlign=middle;spacingLeft=4;spacingRight=4;overflow=hidden;points=[[0,0.5],[1,0.5]];portConstraint=eastwest;rotatable=0;whiteSpace=wrap;html=1;" vertex="1" parent="bOpyW85bNfaV8jfnXNod-82">
          <mxGeometry y="30" width="203" height="30" as="geometry" />
        </mxCell>
        <mxCell id="bOpyW85bNfaV8jfnXNod-84" value="Sender (User)" style="text;strokeColor=none;fillColor=none;align=left;verticalAlign=middle;spacingLeft=4;spacingRight=4;overflow=hidden;points=[[0,0.5],[1,0.5]];portConstraint=eastwest;rotatable=0;whiteSpace=wrap;html=1;" vertex="1" parent="bOpyW85bNfaV8jfnXNod-82">
          <mxGeometry y="60" width="203" height="30" as="geometry" />
        </mxCell>
        <mxCell id="bOpyW85bNfaV8jfnXNod-85" value="Date (Postgre DATE type)" style="text;strokeColor=none;fillColor=none;align=left;verticalAlign=middle;spacingLeft=4;spacingRight=4;overflow=hidden;points=[[0,0.5],[1,0.5]];portConstraint=eastwest;rotatable=0;whiteSpace=wrap;html=1;" vertex="1" parent="bOpyW85bNfaV8jfnXNod-82">
          <mxGeometry y="90" width="203" height="30" as="geometry" />
        </mxCell>
        <mxCell id="bOpyW85bNfaV8jfnXNod-86" value="Room (Chat room Model)" style="text;strokeColor=none;fillColor=none;align=left;verticalAlign=middle;spacingLeft=4;spacingRight=4;overflow=hidden;points=[[0,0.5],[1,0.5]];portConstraint=eastwest;rotatable=0;whiteSpace=wrap;html=1;" vertex="1" parent="bOpyW85bNfaV8jfnXNod-82">
          <mxGeometry y="120" width="203" height="30" as="geometry" />
        </mxCell>
        <mxCell id="bOpyW85bNfaV8jfnXNod-88" style="edgeStyle=orthogonalEdgeStyle;rounded=0;orthogonalLoop=1;jettySize=auto;html=1;entryX=-0.034;entryY=0.667;entryDx=0;entryDy=0;entryPerimeter=0;" edge="1" parent="1" source="bOpyW85bNfaV8jfnXNod-11" target="bOpyW85bNfaV8jfnXNod-84">
          <mxGeometry relative="1" as="geometry" />
        </mxCell>
        <mxCell id="bOpyW85bNfaV8jfnXNod-90" style="edgeStyle=orthogonalEdgeStyle;rounded=0;orthogonalLoop=1;jettySize=auto;html=1;exitX=0.5;exitY=1;exitDx=0;exitDy=0;" edge="1" parent="1" source="bOpyW85bNfaV8jfnXNod-7" target="bOpyW85bNfaV8jfnXNod-7">
          <mxGeometry relative="1" as="geometry" />
        </mxCell>
        <mxCell id="bOpyW85bNfaV8jfnXNod-103" style="edgeStyle=orthogonalEdgeStyle;rounded=0;orthogonalLoop=1;jettySize=auto;html=1;exitX=0.5;exitY=1;exitDx=0;exitDy=0;" edge="1" parent="1" source="bOpyW85bNfaV8jfnXNod-99" target="bOpyW85bNfaV8jfnXNod-100">
          <mxGeometry relative="1" as="geometry" />
        </mxCell>
        <mxCell id="bOpyW85bNfaV8jfnXNod-139" style="edgeStyle=orthogonalEdgeStyle;rounded=0;orthogonalLoop=1;jettySize=auto;html=1;exitX=0.5;exitY=1;exitDx=0;exitDy=0;" edge="1" parent="1" source="bOpyW85bNfaV8jfnXNod-99" target="bOpyW85bNfaV8jfnXNod-127">
          <mxGeometry relative="1" as="geometry" />
        </mxCell>
        <mxCell id="bOpyW85bNfaV8jfnXNod-154" style="edgeStyle=orthogonalEdgeStyle;rounded=0;orthogonalLoop=1;jettySize=auto;html=1;" edge="1" parent="1">
          <mxGeometry relative="1" as="geometry">
            <mxPoint x="994" y="345" as="sourcePoint" />
            <mxPoint x="1319" y="455" as="targetPoint" />
            <Array as="points">
              <mxPoint x="994" y="405" />
              <mxPoint x="1319" y="405" />
            </Array>
          </mxGeometry>
        </mxCell>
        <mxCell id="bOpyW85bNfaV8jfnXNod-99" value="Services" style="rounded=1;whiteSpace=wrap;html=1;" vertex="1" parent="1">
          <mxGeometry x="887.5" y="290" width="213" height="60" as="geometry" />
        </mxCell>
        <mxCell id="bOpyW85bNfaV8jfnXNod-109" style="edgeStyle=orthogonalEdgeStyle;rounded=0;orthogonalLoop=1;jettySize=auto;html=1;exitX=0.5;exitY=1;exitDx=0;exitDy=0;" edge="1" parent="1" source="bOpyW85bNfaV8jfnXNod-100" target="bOpyW85bNfaV8jfnXNod-108">
          <mxGeometry relative="1" as="geometry" />
        </mxCell>
        <mxCell id="bOpyW85bNfaV8jfnXNod-110" style="edgeStyle=orthogonalEdgeStyle;rounded=0;orthogonalLoop=1;jettySize=auto;html=1;exitX=0.5;exitY=1;exitDx=0;exitDy=0;" edge="1" parent="1" source="bOpyW85bNfaV8jfnXNod-100" target="bOpyW85bNfaV8jfnXNod-107">
          <mxGeometry relative="1" as="geometry" />
        </mxCell>
        <mxCell id="bOpyW85bNfaV8jfnXNod-111" style="edgeStyle=orthogonalEdgeStyle;rounded=0;orthogonalLoop=1;jettySize=auto;html=1;exitX=0.5;exitY=1;exitDx=0;exitDy=0;entryX=0.5;entryY=0;entryDx=0;entryDy=0;" edge="1" parent="1" source="bOpyW85bNfaV8jfnXNod-100" target="bOpyW85bNfaV8jfnXNod-106">
          <mxGeometry relative="1" as="geometry" />
        </mxCell>
        <mxCell id="bOpyW85bNfaV8jfnXNod-115" style="edgeStyle=orthogonalEdgeStyle;rounded=0;orthogonalLoop=1;jettySize=auto;html=1;exitX=0;exitY=0.5;exitDx=0;exitDy=0;entryX=0.5;entryY=0;entryDx=0;entryDy=0;" edge="1" parent="1" source="bOpyW85bNfaV8jfnXNod-100" target="bOpyW85bNfaV8jfnXNod-114">
          <mxGeometry relative="1" as="geometry" />
        </mxCell>
        <mxCell id="bOpyW85bNfaV8jfnXNod-100" value="Users" style="rounded=1;whiteSpace=wrap;html=1;" vertex="1" parent="1">
          <mxGeometry x="384.5" y="460" width="120" height="50" as="geometry" />
        </mxCell>
        <mxCell id="bOpyW85bNfaV8jfnXNod-106" value="Create" style="rounded=1;whiteSpace=wrap;html=1;" vertex="1" parent="1">
          <mxGeometry x="384.5" y="550" width="120" height="50" as="geometry" />
        </mxCell>
        <mxCell id="bOpyW85bNfaV8jfnXNod-107" value="Edit" style="rounded=1;whiteSpace=wrap;html=1;" vertex="1" parent="1">
          <mxGeometry x="517.5" y="550" width="120" height="50" as="geometry" />
        </mxCell>
        <mxCell id="bOpyW85bNfaV8jfnXNod-108" value="Delete" style="rounded=1;whiteSpace=wrap;html=1;" vertex="1" parent="1">
          <mxGeometry x="247.5" y="550" width="120" height="50" as="geometry" />
        </mxCell>
        <mxCell id="bOpyW85bNfaV8jfnXNod-121" style="edgeStyle=orthogonalEdgeStyle;rounded=0;orthogonalLoop=1;jettySize=auto;html=1;exitX=0.5;exitY=1;exitDx=0;exitDy=0;" edge="1" parent="1" source="bOpyW85bNfaV8jfnXNod-114" target="bOpyW85bNfaV8jfnXNod-119">
          <mxGeometry relative="1" as="geometry" />
        </mxCell>
        <mxCell id="bOpyW85bNfaV8jfnXNod-122" style="edgeStyle=orthogonalEdgeStyle;rounded=0;orthogonalLoop=1;jettySize=auto;html=1;exitX=0.5;exitY=1;exitDx=0;exitDy=0;entryX=0.5;entryY=0;entryDx=0;entryDy=0;" edge="1" parent="1" source="bOpyW85bNfaV8jfnXNod-114" target="bOpyW85bNfaV8jfnXNod-120">
          <mxGeometry relative="1" as="geometry" />
        </mxCell>
        <mxCell id="bOpyW85bNfaV8jfnXNod-114" value="Find" style="shape=hexagon;perimeter=hexagonPerimeter2;whiteSpace=wrap;html=1;fixedSize=1;" vertex="1" parent="1">
          <mxGeometry x="91.5" y="550" width="126" height="47.5" as="geometry" />
        </mxCell>
        <mxCell id="bOpyW85bNfaV8jfnXNod-119" value="All Users" style="rounded=1;whiteSpace=wrap;html=1;" vertex="1" parent="1">
          <mxGeometry x="60" y="630" width="64.5" height="30" as="geometry" />
        </mxCell>
        <mxCell id="bOpyW85bNfaV8jfnXNod-120" value="By ID" style="rounded=1;whiteSpace=wrap;html=1;" vertex="1" parent="1">
          <mxGeometry x="183" y="630" width="64.5" height="30" as="geometry" />
        </mxCell>
        <mxCell id="bOpyW85bNfaV8jfnXNod-123" style="edgeStyle=orthogonalEdgeStyle;rounded=0;orthogonalLoop=1;jettySize=auto;html=1;exitX=0.5;exitY=1;exitDx=0;exitDy=0;" edge="1" parent="1" source="bOpyW85bNfaV8jfnXNod-127" target="bOpyW85bNfaV8jfnXNod-130">
          <mxGeometry relative="1" as="geometry" />
        </mxCell>
        <mxCell id="bOpyW85bNfaV8jfnXNod-137" value="By ID" style="edgeLabel;html=1;align=center;verticalAlign=middle;resizable=0;points=[];" vertex="1" connectable="0" parent="bOpyW85bNfaV8jfnXNod-123">
          <mxGeometry x="0.725" y="1" relative="1" as="geometry">
            <mxPoint as="offset" />
          </mxGeometry>
        </mxCell>
        <mxCell id="bOpyW85bNfaV8jfnXNod-125" style="edgeStyle=orthogonalEdgeStyle;rounded=0;orthogonalLoop=1;jettySize=auto;html=1;exitX=0.5;exitY=1;exitDx=0;exitDy=0;entryX=0.5;entryY=0;entryDx=0;entryDy=0;" edge="1" parent="1" source="bOpyW85bNfaV8jfnXNod-127" target="bOpyW85bNfaV8jfnXNod-128">
          <mxGeometry relative="1" as="geometry" />
        </mxCell>
        <mxCell id="bOpyW85bNfaV8jfnXNod-138" value="By ID" style="edgeLabel;html=1;align=center;verticalAlign=middle;resizable=0;points=[];" vertex="1" connectable="0" parent="bOpyW85bNfaV8jfnXNod-125">
          <mxGeometry x="0.7" y="1" relative="1" as="geometry">
            <mxPoint as="offset" />
          </mxGeometry>
        </mxCell>
        <mxCell id="bOpyW85bNfaV8jfnXNod-126" style="edgeStyle=orthogonalEdgeStyle;rounded=0;orthogonalLoop=1;jettySize=auto;html=1;exitX=0;exitY=0.5;exitDx=0;exitDy=0;entryX=0.5;entryY=0;entryDx=0;entryDy=0;" edge="1" parent="1" source="bOpyW85bNfaV8jfnXNod-127" target="bOpyW85bNfaV8jfnXNod-133">
          <mxGeometry relative="1" as="geometry" />
        </mxCell>
        <mxCell id="bOpyW85bNfaV8jfnXNod-127" value="Friends" style="rounded=1;whiteSpace=wrap;html=1;" vertex="1" parent="1">
          <mxGeometry x="934.5" y="460" width="120" height="50" as="geometry" />
        </mxCell>
        <mxCell id="bOpyW85bNfaV8jfnXNod-128" value="Remove" style="rounded=1;whiteSpace=wrap;html=1;" vertex="1" parent="1">
          <mxGeometry x="1014.5" y="590" width="120" height="50" as="geometry" />
        </mxCell>
        <mxCell id="bOpyW85bNfaV8jfnXNod-130" value="Add" style="rounded=1;whiteSpace=wrap;html=1;" vertex="1" parent="1">
          <mxGeometry x="854.5" y="590" width="120" height="50" as="geometry" />
        </mxCell>
        <mxCell id="bOpyW85bNfaV8jfnXNod-131" style="edgeStyle=orthogonalEdgeStyle;rounded=0;orthogonalLoop=1;jettySize=auto;html=1;exitX=0.5;exitY=1;exitDx=0;exitDy=0;" edge="1" parent="1" source="bOpyW85bNfaV8jfnXNod-133" target="bOpyW85bNfaV8jfnXNod-134">
          <mxGeometry relative="1" as="geometry" />
        </mxCell>
        <mxCell id="bOpyW85bNfaV8jfnXNod-132" style="edgeStyle=orthogonalEdgeStyle;rounded=0;orthogonalLoop=1;jettySize=auto;html=1;exitX=0.5;exitY=1;exitDx=0;exitDy=0;entryX=0.5;entryY=0;entryDx=0;entryDy=0;" edge="1" parent="1" source="bOpyW85bNfaV8jfnXNod-133" target="bOpyW85bNfaV8jfnXNod-135">
          <mxGeometry relative="1" as="geometry" />
        </mxCell>
        <mxCell id="bOpyW85bNfaV8jfnXNod-133" value="Find" style="shape=hexagon;perimeter=hexagonPerimeter2;whiteSpace=wrap;html=1;fixedSize=1;" vertex="1" parent="1">
          <mxGeometry x="691.5" y="550" width="126" height="47.5" as="geometry" />
        </mxCell>
        <mxCell id="bOpyW85bNfaV8jfnXNod-134" value="All Users" style="rounded=1;whiteSpace=wrap;html=1;" vertex="1" parent="1">
          <mxGeometry x="670" y="630" width="64.5" height="30" as="geometry" />
        </mxCell>
        <mxCell id="bOpyW85bNfaV8jfnXNod-135" value="By ID" style="rounded=1;whiteSpace=wrap;html=1;" vertex="1" parent="1">
          <mxGeometry x="770" y="630" width="64.5" height="30" as="geometry" />
        </mxCell>
        <mxCell id="bOpyW85bNfaV8jfnXNod-140" style="edgeStyle=orthogonalEdgeStyle;rounded=0;orthogonalLoop=1;jettySize=auto;html=1;exitX=0.5;exitY=1;exitDx=0;exitDy=0;" edge="1" parent="1" source="bOpyW85bNfaV8jfnXNod-145" target="bOpyW85bNfaV8jfnXNod-147">
          <mxGeometry relative="1" as="geometry" />
        </mxCell>
        <mxCell id="bOpyW85bNfaV8jfnXNod-141" value="By ID" style="edgeLabel;html=1;align=center;verticalAlign=middle;resizable=0;points=[];" vertex="1" connectable="0" parent="bOpyW85bNfaV8jfnXNod-140">
          <mxGeometry x="0.725" y="1" relative="1" as="geometry">
            <mxPoint as="offset" />
          </mxGeometry>
        </mxCell>
        <mxCell id="bOpyW85bNfaV8jfnXNod-142" style="edgeStyle=orthogonalEdgeStyle;rounded=0;orthogonalLoop=1;jettySize=auto;html=1;exitX=0.5;exitY=1;exitDx=0;exitDy=0;entryX=0.5;entryY=0;entryDx=0;entryDy=0;" edge="1" parent="1" source="bOpyW85bNfaV8jfnXNod-145" target="bOpyW85bNfaV8jfnXNod-146">
          <mxGeometry relative="1" as="geometry" />
        </mxCell>
        <mxCell id="bOpyW85bNfaV8jfnXNod-143" value="By ID" style="edgeLabel;html=1;align=center;verticalAlign=middle;resizable=0;points=[];" vertex="1" connectable="0" parent="bOpyW85bNfaV8jfnXNod-142">
          <mxGeometry x="0.7" y="1" relative="1" as="geometry">
            <mxPoint as="offset" />
          </mxGeometry>
        </mxCell>
        <mxCell id="bOpyW85bNfaV8jfnXNod-153" style="edgeStyle=orthogonalEdgeStyle;rounded=0;orthogonalLoop=1;jettySize=auto;html=1;" edge="1" parent="1" source="bOpyW85bNfaV8jfnXNod-145" target="bOpyW85bNfaV8jfnXNod-150">
          <mxGeometry relative="1" as="geometry" />
        </mxCell>
        <mxCell id="bOpyW85bNfaV8jfnXNod-145" value="Blocks" style="rounded=1;whiteSpace=wrap;html=1;" vertex="1" parent="1">
          <mxGeometry x="1259" y="460" width="120" height="50" as="geometry" />
        </mxCell>
        <mxCell id="bOpyW85bNfaV8jfnXNod-146" value="Remove" style="rounded=1;whiteSpace=wrap;html=1;" vertex="1" parent="1">
          <mxGeometry x="1339" y="590" width="120" height="50" as="geometry" />
        </mxCell>
        <mxCell id="bOpyW85bNfaV8jfnXNod-147" value="Add" style="rounded=1;whiteSpace=wrap;html=1;" vertex="1" parent="1">
          <mxGeometry x="1179" y="590" width="120" height="50" as="geometry" />
        </mxCell>
        <mxCell id="bOpyW85bNfaV8jfnXNod-148" style="edgeStyle=orthogonalEdgeStyle;rounded=0;orthogonalLoop=1;jettySize=auto;html=1;exitX=0.5;exitY=1;exitDx=0;exitDy=0;" edge="1" parent="1" source="bOpyW85bNfaV8jfnXNod-150" target="bOpyW85bNfaV8jfnXNod-151">
          <mxGeometry relative="1" as="geometry" />
        </mxCell>
        <mxCell id="bOpyW85bNfaV8jfnXNod-149" style="edgeStyle=orthogonalEdgeStyle;rounded=0;orthogonalLoop=1;jettySize=auto;html=1;exitX=0.5;exitY=1;exitDx=0;exitDy=0;entryX=0.5;entryY=0;entryDx=0;entryDy=0;" edge="1" parent="1" source="bOpyW85bNfaV8jfnXNod-150" target="bOpyW85bNfaV8jfnXNod-152">
          <mxGeometry relative="1" as="geometry" />
        </mxCell>
        <mxCell id="bOpyW85bNfaV8jfnXNod-150" value="Find" style="shape=hexagon;perimeter=hexagonPerimeter2;whiteSpace=wrap;html=1;fixedSize=1;" vertex="1" parent="1">
          <mxGeometry x="1511" y="550" width="126" height="47.5" as="geometry" />
        </mxCell>
        <mxCell id="bOpyW85bNfaV8jfnXNod-151" value="All Users" style="rounded=1;whiteSpace=wrap;html=1;" vertex="1" parent="1">
          <mxGeometry x="1489.5" y="630" width="64.5" height="30" as="geometry" />
        </mxCell>
        <mxCell id="bOpyW85bNfaV8jfnXNod-152" value="By ID" style="rounded=1;whiteSpace=wrap;html=1;" vertex="1" parent="1">
          <mxGeometry x="1589.5" y="630" width="64.5" height="30" as="geometry" />
        </mxCell>
      </root>
    </mxGraphModel>
  </diagram>
</mxfile>
